<svg xmlns="http://www.w3.org/2000/svg" viewBox="0 0 384 519" width="384" height="519">
	<style>
		tspan { white-space:pre }
		.shp0 { fill: #000000 } 
		.shp1 { fill: #a7a7a7 } 
		.shp2 { fill: #715e6d } 
		.shp3 { fill: #ebcd36 } 
		.shp4 { fill: #0c0437 } 
		.shp5 { fill: #7b7f76 } 
		.shp6 { fill: #ed7a89 } 
	</style>
	<g id="Background">
		<path id="Path 0" class="shp0" d="M63.52 41.75C63.15 43.26 62.88 60.92 62.91 81C62.94 103.3 63.56 126.06 64.5 139.5C65.36 151.6 66.68 167.35 67.44 174.5C68.2 181.65 69.58 194.93 70.5 204C71.52 213.97 72.93 222.48 74.08 225.5C75.12 228.25 77.44 232.04 79.24 233.91C81.03 235.79 86.33 239.83 91 242.89C95.67 245.95 104.22 250.56 110 253.13C115.78 255.71 125.41 259.55 131.42 261.66L142.34 265.5C141.3 291.85 140.34 306.7 139.53 315.5C138.72 324.3 136.93 338.48 135.56 347C134.18 355.52 131.91 367.68 130.51 374C129.11 380.32 126.83 389.77 125.43 395C124.04 400.23 121.74 408.1 120.32 412.5C118.91 416.9 115.73 425.45 113.26 431.5C110.79 437.55 106.95 446.1 104.74 450.5C102.52 454.9 98.03 463 94.76 468.5C91.49 474 85.83 482.77 82.19 488C78.55 493.23 71.84 502.11 67.28 507.75C62.73 513.39 59 518.23 59 518.5C59 518.77 60.69 519.02 62.75 519.04C66.33 519.08 66.87 518.61 74.61 508.79C79.07 503.13 85.64 494.23 89.21 489C92.78 483.77 97.87 475.9 100.51 471.5C103.15 467.1 107.88 458.32 111.01 452C114.15 445.68 118.79 435.1 121.32 428.5C123.86 421.9 127.51 411.1 129.43 404.5C131.35 397.9 134.33 386.2 136.04 378.5C137.76 370.8 140.2 358.2 141.48 350.5C142.76 342.8 144.28 332.23 144.86 327C145.44 321.77 146.16 314.24 146.46 310.25C146.75 306.26 147.45 303 148 303C148.55 303 155.41 305.66 163.25 308.91C171.09 312.16 185.6 317.74 195.5 321.31C205.4 324.89 219.35 329.89 226.5 332.43C233.65 334.98 241.07 337.63 243 338.32L246.5 339.59C245.88 475.14 245.99 515.51 246.35 516.75C246.82 518.38 247.76 519 249.75 519L252.5 519C253.07 368.26 253.52 313.05 253.87 299.06L254.5 273.62C270.77 270.99 279.32 269.31 284 268.19C288.68 267.06 297 264.59 302.5 262.69C308 260.8 316.77 257.36 322 255.06C327.23 252.75 334.88 249.03 339 246.79C343.13 244.54 347.85 241.57 349.5 240.19C351.15 238.8 353.45 235.6 354.6 233.08C355.76 230.56 357.48 225.13 358.42 221C359.37 216.88 360.4 209 360.71 203.5C361.13 196.33 360.8 190.52 359.55 183C358.59 177.22 356.52 168.45 354.93 163.5C353.35 158.55 350.2 150.9 347.93 146.5C345.67 142.1 341.66 135.8 339.03 132.5C336.39 129.2 331.71 124.47 328.61 122C325.52 119.53 323 117.28 323 117C323.01 116.72 321.43 107.72 319.5 97C317.57 86.28 315.07 73.22 313.94 68C312.82 62.77 311.22 55.8 310.39 52.5C309.56 49.2 308.46 44.81 307.94 42.75C307.09 39.37 306.68 39 303.75 39.02L300.5 39.04C303.95 52.57 306.97 66.63 309.44 79C311.9 91.38 314.73 105.73 315.71 110.91L317.5 120.31C329.69 131.31 335.3 137.65 337.82 141.5C340.35 145.35 343.86 152.1 345.62 156.5C347.38 160.9 349.87 168.32 351.15 173C353.18 180.39 353.48 183.78 353.48 199C353.48 213.19 353.14 217.64 351.64 222.5C350.62 225.8 348.94 230.19 347.9 232.25C346.18 235.64 344.34 236.81 328.75 244.45C319.26 249.1 307 254.44 301.5 256.32C296 258.2 286.55 260.9 280.5 262.32C274.45 263.75 264.1 265.69 257.5 266.65C248.92 267.89 238.94 268.39 222.5 268.41C206.27 268.43 195.38 267.91 185.5 266.66C177.8 265.69 165.88 263.75 159 262.36C152.13 260.96 141.1 258.03 134.5 255.83C127.9 253.63 117.1 249.26 110.5 246.12C103.9 242.97 95.8 238.52 92.5 236.23C89.2 233.95 85 230.82 83.16 229.29C79.83 226.5 79.83 226.5 77.92 210.5C76.87 201.7 75.12 185.95 74.03 175.5C72.95 165.05 71.51 149.53 70.84 141C70.16 132.3 69.59 106.52 69.56 82.25L69.5 39C64.76 39 64.03 39.6 63.52 41.75Z" />
		<path id="Path 1" class="shp1" d="M69.48 54.73C69.06 63.4 69 83.55 69.36 99.5C69.71 115.45 70.47 134.8 71.04 142.5C71.6 150.2 72.96 165.05 74.04 175.5C75.12 185.95 76.87 201.7 77.92 210.5C79.83 226.5 79.83 226.5 83.16 229.29C85 230.82 89.2 233.95 92.5 236.23C95.8 238.52 103.9 242.97 110.5 246.12C117.1 249.26 127.9 253.63 134.5 255.83C141.1 258.03 152.13 260.96 159 262.36C165.88 263.75 177.8 265.69 185.5 266.66C195.38 267.91 206.27 268.43 222.5 268.41C238.94 268.39 248.92 267.89 257.5 266.65C264.1 265.69 274.45 263.75 280.5 262.32C286.55 260.9 296 258.2 301.5 256.32C307 254.44 319.26 249.1 328.75 244.45C344.34 236.81 346.18 235.64 347.9 232.25C348.94 230.19 350.62 225.8 351.64 222.5C353.14 217.64 353.48 213.19 353.48 199C353.48 183.78 353.18 180.39 351.15 173C349.87 168.32 347.38 160.9 345.62 156.5C343.86 152.1 340.35 145.35 337.82 141.5C335.3 137.65 329.69 131.31 325.37 127.41L317.5 120.31C314.73 105.73 311.9 91.38 309.43 79C306.96 66.63 305.55 48.04 304.33 43.37C302.15 35.01 294.53 15.95 291.33 15.7C288.43 15.48 292.54 37.03 293 39.04C293.28 40.27 296.61 51.15 298.54 60.5C300.47 69.85 303.84 86.16 306.03 96.75C308.21 107.34 309.77 116.45 309.5 117C309.23 117.55 307.09 116.4 304.75 114.44C301.35 111.6 299.8 110.95 297 111.19L293.5 111.5C290.91 60.35 289.71 40.82 289.67 39.04L291 16.7L281.33 25.37C276.33 45.93 270.93 72.25 269.58 80.5C268.22 88.75 266.61 99.33 266.01 104C265.4 108.67 265.09 112.95 265.32 113.5C265.55 114.05 269.96 114.78 275.12 115.13C281.45 115.55 287.26 116.69 293 118.64C297.88 120.29 301.66 122.15 301.87 123.01C302.11 123.98 301.76 124.27 300.87 123.85C300.12 123.5 292.98 122.65 285 121.96C273.72 121 264.05 120.97 241.5 121.85C225.55 122.46 198.55 123.48 181.5 124.1C164.45 124.73 150.19 125.52 149.82 125.87C149.45 126.22 149.79 128.97 150.57 132C151.36 135.03 152.01 138.29 152 139.25C152 140.21 151.66 141.01 151.25 141.03C150.84 141.04 147.83 136.21 144.57 130.28C141.31 124.35 137.6 117.36 136.32 114.75C135.05 112.14 131.26 103.59 127.9 95.75C124.55 87.91 118.83 75.2 115.19 67.5C111.55 59.8 106.91 50.35 104.87 46.5L101.17 39.5L80.67 9.37L70.25 38.95L69.48 54.73Z" />
		<path id="Layer 2" class="shp1" d="M287 17L281 43L297 43L293 16L287 17Z" />
		<path id="Layer 1" class="shp0" d="M63 43C64 37.7 63 43 63 43C64.1 30.31 68.1 18.03 74.69 7.13L74.69 7.13C77.74 5.35 81.63 6.09 83.82 8.85L108.33 39.7C110.33 42.29 106.27 40.7 103 40.7L101 39L85.3 16.24C83.27 13.3 78.75 13.97 77.67 17.37C77.67 17.37 77.67 17.67 77.67 17.37C77.67 17.07 68.67 43.37 68.67 43.37C68.67 43.37 62 48.3 63 43Z" />
		<path id="Layer 1 copy" class="shp0" d="M270 49C271 43.7 270 49 270 49C271.1 36.31 279.74 21.94 286.33 11.04L291.33 8.37C294.38 6.59 292.47 5.94 294.67 8.7L307.33 39.7C309.33 42.29 308.6 50.04 305.33 50.04L302 41.37L295 19.7C292.97 16.76 291.09 13.97 290 17.37C290 17.37 285.33 25 285.33 24.7C285.33 24.41 275.67 49.37 275.67 49.37C275.67 49.37 269 54.3 270 49Z" />
		<path id="Path 2" class="shp0" d="M109.48 55.75C114.03 64.96 120.78 79.47 124.48 88C128.18 96.53 132.61 106.65 134.33 110.5C136.04 114.35 138.61 119.53 140.04 122C141.47 124.47 144.41 129.78 146.57 133.79C148.73 137.8 150.84 141.07 151.25 141.04C151.66 141.02 152 140.21 152 139.25C152.01 138.29 151.36 135.03 150.57 132C149.79 128.97 149.45 126.22 149.82 125.87C150.19 125.52 164.45 124.73 181.5 124.1C198.55 123.48 225.55 122.46 241.5 121.85C264.05 120.97 273.72 121 285 121.96C292.98 122.65 300.12 123.5 300.87 123.85C301.76 124.27 302.11 123.98 301.87 123.01C301.66 122.15 297.88 120.29 293 118.64C287.26 116.69 281.45 115.55 275.12 115.13C269.96 114.78 265.55 114.05 265.32 113.5C265.09 112.95 265.4 108.67 266.01 104C266.61 99.33 268.22 88.75 269.57 80.5C270.92 72.25 273.37 59.99 275.01 53.25C276.66 46.51 278 40.55 278 40C278 39.45 276.54 39.11 274.75 39.25L271.5 39.5C266.48 61.2 263.86 74.92 262.44 84C261.02 93.08 259.55 103.59 259.18 107.36C258.8 111.13 258.27 114.36 258 114.53C257.73 114.71 237.48 115.55 213 116.4C188.52 117.25 163.32 118.22 157 118.55L145.5 119.15C141.03 109.35 136.71 99.53 133.01 91C129.32 82.47 122.29 67.27 117.4 57.22L108.5 38.94L101.21 39L109.48 55.75ZM290.08 42.25C290.12 44.04 290.91 60.35 291.83 78.5L293.5 111.5C299.8 110.95 301.35 111.6 304.75 114.44C307.09 116.4 309.23 117.55 309.5 117C309.77 116.45 308.21 107.34 306.03 96.75C303.84 86.16 300.47 69.85 298.54 60.5C296.61 51.15 294.79 42.49 294.51 41.25C294.19 39.84 293.26 39 292 39C290.39 39 290.02 39.64 290.08 42.25ZM82 81.75C82 102.51 82.33 125.01 82.75 131.76C83.16 138.5 83.84 144.01 84.25 144.01C84.66 144 88.94 142.12 93.75 139.82C100.72 136.48 103.92 135.54 109.5 135.18C113.35 134.93 118.97 135.28 122 135.95C125.82 136.8 127.81 136.86 128.5 136.13C129.17 135.43 128.79 133.68 127.33 130.79C126.14 128.43 119.67 115.25 112.96 101.5C106.24 87.75 97.21 69.19 92.87 60.25C87.89 49.97 84.45 44 83.5 44C82.19 44 82 48.86 82 81.75Z" />
		<path id="Path 3" class="shp2" d="M85.96 96.5C85.95 119.05 86.29 137.82 86.72 138.21C87.15 138.61 89.64 137.82 92.25 136.46C94.86 135.11 99.81 133.27 103.25 132.39C107.62 131.26 111.53 130.96 116.25 131.39C119.96 131.72 123 131.66 123 131.25C123.01 130.84 115.06 114.08 105.34 94C95.63 73.92 87.29 57.05 86.82 56.5C86.35 55.94 85.96 73.69 85.96 96.5ZM294.4 74C294.76 82.53 295.3 93.55 295.62 98.5L296.2 107.5C303.41 109.46 305.6 109.91 305.73 109.76C305.85 109.62 303.66 98.47 300.86 85C298.06 71.53 295.32 60.05 294.77 59.5C294.1 58.83 293.98 63.66 294.4 74Z" />
		<path id="Path 4" class="shp0" d="M301.81 152.88C300.32 153.33 297.74 154.44 296.06 155.35C294.37 156.26 290.94 158.91 288.41 161.25C285.89 163.59 282.4 167.74 280.66 170.47C278.92 173.2 276.13 179.5 274.46 184.47L271.41 193.5C264.55 194.39 263.99 194.74 265.08 195.55C265.86 196.13 268.75 197.17 271.5 197.86C274.25 198.56 278.3 200.11 280.5 201.31C283.19 202.78 285.24 204.97 286.76 208C288 210.47 289 213.63 288.98 215C288.97 216.38 287.95 219.47 286.73 221.88C285.5 224.29 281.91 228.68 278.75 231.63C274.97 235.16 272.14 237 270.5 237C268.74 237 266.89 235.64 264.25 232.41C262.19 229.89 260.65 227.3 260.83 226.66C261.01 226.02 261.46 223.6 261.83 221.28C262.3 218.33 262.13 216.91 261.25 216.53C260.45 216.19 259.8 217.16 259.45 219.25C259.15 221.04 258.48 224.53 257.96 227C257.44 229.47 256 232.67 254.76 234.1C253.52 235.53 250.93 237.17 249 237.73C246.79 238.39 243.66 238.45 240.5 237.89C236.7 237.23 234.72 236.18 232.25 233.51C229.4 230.43 229 229.32 229 224.5C229 221 230.05 216 231.9 210.75C233.49 206.21 235.06 201.71 235.4 200.75C235.76 199.7 235.5 198.99 234.75 198.97C234.06 198.95 231.81 203.56 229.74 209.22C227.01 216.68 225.98 221.08 225.99 225.25C226 230.08 226.44 231.51 228.75 234.17C230.26 235.92 233.3 238.16 235.5 239.15C237.7 240.14 241.75 240.95 244.5 240.94C247.85 240.94 250.75 240.2 253.27 238.72C255.35 237.5 257.03 236.28 257.01 236C256.98 235.72 257.58 234.6 258.33 233.5C259.65 231.57 259.83 231.64 263.85 235.75C266.13 238.09 268.79 240.01 269.75 240.01C270.71 240.02 273.52 238.75 276 237.18C278.48 235.62 282.27 232.35 284.43 229.92C286.59 227.49 288.96 224.04 289.68 222.25C290.41 220.46 290.99 216.86 290.99 214.25L290.98 209.5C299.13 208.52 304.2 206.98 307.5 205.44C311.22 203.71 315.79 200.34 319.53 196.57C323.09 192.99 327.05 187.62 329.17 183.5C331.15 179.65 333.53 173.8 334.45 170.5C336.06 164.72 336.06 164.41 334.19 162C333.13 160.63 329.38 157.95 325.88 156.05C320.47 153.13 318.35 152.56 312 152.33C307.88 152.18 303.29 152.42 301.81 152.88ZM136.5 156.42C133.2 157.18 128.03 158.73 125 159.86C121.97 160.99 117.59 163.28 115.25 164.96C112.91 166.63 111 168.68 111 169.5C111 170.32 111.35 171.11 111.79 171.25C112.22 171.39 113.88 173.75 115.47 176.5C117.06 179.25 121.82 184.88 126.04 189C130.27 193.13 137.27 198.65 141.61 201.27C145.95 203.89 154 207.58 159.5 209.47C165 211.36 173.55 213.43 178.5 214.08C183.85 214.79 191.75 215.01 198 214.63C203.78 214.29 211.65 213.32 215.5 212.48C219.35 211.64 222.84 210.4 223.25 209.73C223.66 209.05 223.74 207.15 223.42 205.5C223.1 203.85 221.58 199.8 220.06 196.5C218.53 193.2 215.3 187.98 212.89 184.91C210.48 181.83 205.97 177.11 202.87 174.41C199.78 171.71 194.38 167.8 190.87 165.73C187.37 163.65 180.22 160.56 175 158.86C167.17 156.31 163.48 155.7 154 155.4C146.48 155.16 140.42 155.51 136.5 156.42Z" />
		<path id="Path 5" class="shp3" d="M308.02 162.17C305.56 162.69 303.65 163.54 303.77 164.06C303.9 164.58 303.44 165.02 302.75 165.04C302.06 165.06 299.35 166.52 296.72 168.29C294.09 170.05 291.96 171.61 291.97 171.75C291.99 171.89 293.46 171.49 295.25 170.87C297.04 170.26 300.07 170.01 302 170.34C303.93 170.66 306.63 171.77 308 172.79C309.38 173.82 311.57 176.87 312.88 179.58C314.99 183.94 315.13 184.95 314.11 188.5C313.48 190.7 311.74 193.72 310.23 195.21C308.73 196.7 305.7 198.55 303.5 199.31C300.14 200.48 298.86 200.49 295.5 199.37C293.3 198.64 290.15 196.65 288.5 194.95C285.81 192.19 285.5 191.22 285.5 185.53C285.5 182.05 285.27 179.32 285 179.46C284.73 179.6 283.19 181.92 281.59 184.61C279.98 187.3 278.33 189.72 277.91 190C277.49 190.28 276.7 191.63 276.14 193C275.27 195.16 275.47 195.67 277.57 196.75C278.91 197.44 280.68 198 281.5 198C282.32 198 284.8 199.35 287 201C290.15 203.36 292.01 204 295.75 203.98C298.4 203.97 302.49 203.04 305 201.88C307.48 200.74 312.81 197.04 316.86 193.66C323.12 188.42 324.79 186.31 328.08 179.5C330.2 175.1 332.09 170.11 332.28 168.41C332.55 165.89 332.13 165.11 330.05 164.18C328.65 163.56 325.48 162.6 323 162.05C320.52 161.5 317.15 161.09 315.5 161.13C313.85 161.18 310.49 161.64 308.02 162.17ZM134 165.6C132.63 165.85 128.25 166.75 124.29 167.6C118.39 168.86 117.07 169.49 117.04 171.07C117.02 172.13 119.4 176.04 122.33 179.75C125.26 183.47 131.43 189.36 136.08 192.87C140.71 196.38 146.64 200.32 149.25 201.62C151.86 202.93 157.49 205.16 161.75 206.58C167.51 208.5 172.2 209.27 180 209.57C185.78 209.8 193.43 210.22 197 210.52C201.03 210.86 206.54 210.47 211.5 209.51C215.9 208.65 219.61 207.73 219.75 207.47C219.89 207.21 219.14 205.54 218.08 203.75C217.02 201.96 214.73 198.7 212.97 196.5C211.22 194.3 208.37 191.47 206.64 190.2L203.5 187.91C202.26 198.16 201.46 200.15 199.3 202.3C197.76 203.83 194.93 205.58 193 206.17C191.07 206.76 187.81 206.96 185.75 206.62C183.69 206.28 180.54 204.72 178.75 203.15C176.84 201.48 174.96 198.49 174.19 195.9C173.17 192.49 173.13 190.82 174.02 188.5C174.66 186.85 175.97 184.38 176.94 183C177.91 181.63 180.46 179.67 182.6 178.67L186.5 176.83C180.3 172.83 176.7 171.05 174.5 170.3C172.3 169.54 167.57 168.22 164 167.37C160.43 166.52 152.78 165.67 147 165.48C141.22 165.29 135.38 165.35 134 165.6Z" />
		<path id="Path 6" class="shp4" d="M293.04 171.28C291.13 172.01 288.66 173.85 287.54 175.38C285.96 177.54 285.5 179.7 285.5 185.01C285.5 191.28 285.76 192.13 288.5 194.95C290.15 196.65 293.3 198.64 295.5 199.37C298.86 200.49 300.14 200.48 303.5 199.31C305.7 198.55 308.73 196.7 310.23 195.21C311.74 193.72 313.47 190.47 314.09 188C315.11 183.95 314.99 183.06 312.86 179.11C311.56 176.7 309.38 173.86 308 172.8C306.63 171.74 303.48 170.67 301 170.42C298.52 170.17 294.94 170.56 293.04 171.28ZM182.18 178.68C180.36 179.56 178.03 181.45 177.02 182.89C176 184.33 174.66 186.85 174.02 188.5C173.13 190.82 173.17 192.49 174.19 195.9C174.96 198.49 176.84 201.48 178.75 203.15C180.54 204.72 183.69 206.28 185.75 206.62C187.81 206.96 191.07 206.76 193 206.17C194.93 205.58 197.85 203.69 199.5 201.97C201.98 199.39 202.56 197.87 202.84 193.18C203.15 187.88 202.95 187.28 199.84 184.13C198 182.28 195.15 180.07 193.5 179.21C191.85 178.35 189.38 177.52 188 177.37C186.63 177.21 184.01 177.8 182.18 178.68Z" />
		<path id="Path 7" class="shp5" d="M260 195C258.63 195.44 255.03 195.86 252 195.92C248.86 195.99 244.68 196.89 242.25 198.02C239.91 199.11 237.78 200.45 237.5 201C237.22 201.55 236.55 201.78 236 201.5C235.45 201.22 233.79 204.49 232.32 208.75C230.85 213.01 229.43 219.43 229.17 223C228.72 229.27 228.82 229.63 232.1 233.26C234.76 236.2 236.58 237.21 240.5 237.9C243.25 238.38 246.63 238.45 248 238.04C249.38 237.64 251.4 236.85 252.5 236.29C253.6 235.73 255.25 233.75 256.16 231.88C257.08 230.02 258.32 225.8 258.91 222.5L260 216.5C249.26 205.85 247.71 203.67 248.25 202.55C248.77 201.47 250.44 201 253.75 201C256.36 201.01 261.99 200.67 266.26 200.25L274.02 199.5C273.94 203.41 272.1 206.68 269.75 209.5C267.46 212.25 264.78 215.29 263.8 216.25C262.81 217.21 262 219.13 262 220.5C262 221.88 261.59 224.01 261.08 225.25C260.32 227.11 260.83 228.32 264.08 232.25C266.85 235.6 268.73 237 270.5 237C272.14 237 274.97 235.16 278.75 231.63C281.91 228.68 285.5 224.29 286.73 221.88C287.95 219.47 288.97 216.38 288.98 215C289 213.63 288 210.47 286.76 208C284.97 204.44 283.35 202.92 279 200.72C275.98 199.19 271.76 197.61 269.64 197.22C267.51 196.82 265.26 195.92 264.64 195.21C264.01 194.49 263.27 193.98 263 194.06C262.73 194.13 261.38 194.56 260 195Z" />
		<path id="Path 8" class="shp6" d="M256.75 200.7C250.95 200.92 248.81 201.39 248.25 202.55C247.72 203.65 249.09 205.7 253 209.62C256.02 212.66 259.29 215.56 260.25 216.07C261.21 216.58 262.62 216.66 263.39 216.25C264.15 215.84 266.85 212.91 269.39 209.75C271.92 206.59 274 203.1 274 202C274 200.25 273.4 200.03 269.25 200.2C266.64 200.31 261.01 200.54 256.75 200.7Z" />
		<path id="Path 9" class="shp1" d="M146.55 310.25C146.2 314.24 145.44 321.77 144.86 327C144.28 332.23 142.76 342.8 141.48 350.5C140.2 358.2 137.76 370.8 136.04 378.5C134.33 386.2 131.35 397.9 129.43 404.5C127.51 411.1 123.86 421.9 121.32 428.5C118.79 435.1 114.15 445.68 111.02 452C107.89 458.32 102.73 467.77 99.55 473C96.38 478.23 90.97 486.55 87.53 491.5C84.09 496.45 78.44 504.1 74.99 508.5C71.53 512.9 68.21 517.08 67.6 517.79C66.7 518.85 82.95 519.08 156.5 519.04L246.5 518.99L246.5 339.59C241.07 337.63 233.65 334.98 226.5 332.43C219.35 329.89 205.4 324.89 195.5 321.31C185.6 317.74 171.09 312.16 163.25 308.91C155.41 305.66 148.59 303 148.09 303C147.59 303 146.9 306.26 146.55 310.25Z" />
	</g>
</svg>