<svg version="1.1"
      xmlns="http://www.w3.org/2000/svg"
      xmlns:xlink="http://www.w3.org/1999/xlink"  id="snapshot-95763" width="250" height="250" viewBox="0 0 250 250"><desc>This image was made on Patterninja.com</desc><defs>
<!-- image 78620 -->
<g id="transformed-78620" data-image="78620" transform="translate(-50, -55) rotate(0, 50, 55)"><g><svg version="1.1" width="100px" height="110px" viewBox="0 0 100 110"><g id="original-78620"><svg xmlns="http://www.w3.org/2000/svg" viewBox="0 0 60 66" xmlns:xlink="http://www.w3.org/1999/xlink" version="1.1" preserveAspectRatio="xMidYMid meet">
  <path fill-rule="evenodd" d="M58.126 57L39 31v-7h3v-6H18v6h3v7L1.874 57c-3.728 4.946-1.681 8.993 4.546 8.993h47.16c6.228-.005 8.274-4.052 4.546-8.993z" fill="rgba(138, 211, 235, 1)" stroke="none"/>
  <path fill-rule="evenodd" d="M14 48c15 7 16-10 31-2l6.586 9.246c2.861 3.71 3.29 6.745-1.489 6.745H9.9c-4.779 0-4.35-3.035-1.489-6.745L14 48z" fill="rgba(106, 175, 13, 1)" stroke="none"/>
  <circle cx="22" cy="43" r="3" fill-rule="evenodd" fill="rgba(107, 173, 36, 1)" stroke="none"/>
  <circle cx="31" cy="34" r="5" fill-rule="evenodd" fill="rgba(107, 173, 36, 1)" stroke="none"/>
  <circle cx="28" cy="13" r="2" fill-rule="evenodd" fill="rgba(107, 173, 36, 1)" stroke="none"/>
  <circle cx="36" cy="4" r="4" fill-rule="evenodd" fill="rgba(107, 173, 36, 1)" stroke="none"/>
  <path fill-rule="evenodd" d="M24 18h-6v6h3v7L1.874 57c-3.728 4.946-1.681 8.993 4.546 8.993H30V18h-6z" fill="rgba(255, 255, 255, 0.394)" stroke="none"/>
</svg>
</g></svg></g></g>
<!-- /image 78620 -->

<!-- image 27910 -->
<g id="transformed-27910" data-image="27910" transform="translate(75, -25) rotate(90, 25, 25)"><g><svg version="1.1" width="50px" height="50px" viewBox="0 0 50 50"><g id="original-27910"><svg xmlns="http://www.w3.org/2000/svg" viewBox="0 0 400 400" xmlns:xlink="http://www.w3.org/1999/xlink" version="1.1" preserveAspectRatio="xMidYMid meet">
  <path d="M298.4 289l-47.1-66.5h20.5c1.9 0 3.7-1.1 4.5-2.9.8-1.8.5-3.8-.7-5.3l-46.4-54.7h20.2c1.9 0 3.6-1 4.4-2.7.9-1.6.7-3.6-.3-5.2L221 104.3l-15-21.7c-.9-1.4-2.5-2.2-4.1-2.2-1.6 0-3.2.8-4.1 2.2l-47.5 69.1c-1.1 1.5-1.2 3.5-.3 5.2.9 1.6 2.6 2.7 4.4 2.7h20.2l-6.4 7.6-39.9 47.1c-1.3 1.5-1.5 3.6-.7 5.3.8 1.8 2.6 2.9 4.5 2.9h20.5L105.5 289c-1.1 1.5-1.2 3.5-.4 5.2.9 1.7 2.6 2.7 4.4 2.7h53l-.1 35.5c0 1.3.5 2.6 1.5 3.5.9.9 2.2 1.5 3.5 1.5h68.9c2.8 0 5-2.2 5-5v-35.5h53c1.9 0 3.6-1 4.4-2.7.9-1.6.8-3.6-.3-5.2zM201.9 94.3l9.3 13.5c-.3.5-.8 1.1-1.5 2-1.7 2.1-1.4 5.3.8 7 .9.7 2 1.1 3.1 1.1 1.3 0 2.6-.5 3.5-1.4l21.6 31.4h-73.6l7.5-10.9c10.9-.8 14.4-1.1 21.5-4.5 2.5-1.2 3.6-4.2 2.4-6.7-1.2-2.5-4.2-3.6-6.7-2.4-3.7 1.7-5.8 2.4-9.9 2.9l22-32zm-29.7 83.6c3.5 3.4 7.3 6.3 11.5 8.6.8.4 1.6.6 2.4.6 1.8 0 3.5-1 4.4-2.6 1.3-2.4.4-5.5-2-6.8-3.6-1.9-6.9-4.4-9.8-7.4l10.6-12.5h25.4l18.6 21.9c-5.4 1.8-13.5 4-21.8 4.2-2.8.1-4.9 2.4-4.8 5.2.1 2.7 2.3 4.8 5 4.8h.2c11.8-.4 23-4 28.4-6.1l20.9 24.6H143l29.2-34.5zm15.3 109c-2.8 0-5 2.2-5 5s2.2 5 5 5h43.8v30.5h-58.9l.1-35.5c0-1.3-.5-2.6-1.5-3.5-.9-.9-2.2-1.5-3.5-1.5h-48.3l21.8-30.8c3.7 1.8 9.1 2.8 16.3 2.8 2.8 0 5.9-.1 9.3-.4 2.8-.2 4.8-2.6 4.6-5.4-.2-2.8-2.6-4.8-5.4-4.6-11 .9-16.4 0-18.9-.7l17.9-25.2H239l3.4 4.9c-2.7 1.5-6.9 3.4-13.5 5.8-2.6.9-4 3.8-3.1 6.4.7 2.1 2.7 3.3 4.7 3.3.6 0 1.1-.1 1.7-.3 7-2.5 12.2-4.7 16-7l36.4 51.4h-97.1z" fill="rgba(221, 221, 221, 1)" stroke="none"/>
  <path d="M203.6 240.4c-4.2 1.2-6.2 1.8-8 2.4-1.2.4-2.2.7-3.6 1.1-2.7.8-4.2 3.5-3.4 6.2.6 2.2 2.6 3.6 4.8 3.6.5 0 .9-.1 1.4-.2 1.6-.5 2.8-.8 4-1.2 1.7-.6 3.7-1.2 7.6-2.3 2.7-.7 4.2-3.5 3.5-6.2-.9-2.6-3.6-4.2-6.3-3.4z" fill="rgba(221, 221, 221, 1)" stroke="none"/>
  <path d="M194.9 190.8c.8.7 1.9 1.3 3.4 1.5.3 0 .5.1.8.1 2.4 0 4.5-1.8 4.9-4.2.3-2.2-.9-4.4-2.8-5.3-.7-.6-1.6-1-2.7-1.3-2.7-.7-5.4 1-6.1 3.6-.6 2.2.5 4.5 2.5 5.6z" fill="rgba(221, 221, 221, 1)" stroke="none"/>
  <path d="M199.4 125.8c.9.7 2 1.1 3.1 1.1s2.2-.3 3-1c.9-.4 1.9-1.2 2.8-2.5 1.5-2.3.9-5.4-1.4-6.9-1.9-1.2-4.3-1-6 .4-.8.4-1.6 1.1-2.3 1.9-1.8 2.2-1.4 5.3.8 7z" fill="rgba(221, 221, 221, 1)" stroke="none"/>
  <path d="M181.2 247.7h-2.7c-2.8 0-5 2.2-5 5s2.2 5 5 5h2.7c2.8 0 5-2.2 5-5s-2.3-5-5-5z" fill="rgba(221, 221, 221, 1)" stroke="none"/>
  <path d="M218.7 236.3l-2.2.4c-2.7.5-4.5 3.1-4.1 5.8.4 2.4 2.5 4.1 4.9 4.1.3 0 .6 0 .9-.1l2.2-.4c2.7-.5 4.5-3.1 4.1-5.8-.5-2.6-3.1-4.5-5.8-4z" fill="rgba(221, 221, 221, 1)" stroke="none"/>
  <path d="M195.1 74.5l8.3-4.4 8.4 4.4-1.6-9.3 6.8-6.6-9.4-1.3-4.2-8.5-4.1 8.5-9.4 1.3 6.8 6.6z" fill="rgba(221, 221, 221, 1)" stroke="none"/>
</svg>
</g></svg></g></g>
<!-- /image 27910 -->
</defs><rect x="0" y="0" width="250" height="250" fill="rgba(177, 76, 76, 1)"></rect><use xlink:href="#transformed-78620" transform="translate(-250, -250)"></use><use xlink:href="#transformed-78620" transform="translate(0, -250)"></use><use xlink:href="#transformed-78620" transform="translate(250, -250)"></use><use xlink:href="#transformed-78620" transform="translate(-250, 0)"></use><use xlink:href="#transformed-78620" transform="translate(0, 0)"></use><use xlink:href="#transformed-78620" transform="translate(250, 0)"></use><use xlink:href="#transformed-78620" transform="translate(-250, 250)"></use><use xlink:href="#transformed-78620" transform="translate(0, 250)"></use><use xlink:href="#transformed-78620" transform="translate(250, 250)"></use><use xlink:href="#transformed-27910" transform="translate(-250, -250)"></use><use xlink:href="#transformed-27910" transform="translate(0, -250)"></use><use xlink:href="#transformed-27910" transform="translate(250, -250)"></use><use xlink:href="#transformed-27910" transform="translate(-250, 0)"></use><use xlink:href="#transformed-27910" transform="translate(0, 0)"></use><use xlink:href="#transformed-27910" transform="translate(250, 0)"></use><use xlink:href="#transformed-27910" transform="translate(-250, 250)"></use><use xlink:href="#transformed-27910" transform="translate(0, 250)"></use><use xlink:href="#transformed-27910" transform="translate(250, 250)"></use></svg>