<svg xmlns="http://www.w3.org/2000/svg" viewBox="0 0 500 300" width="500" height="300">
	<style>
		tspan { white-space:pre }
		.shp0 { fill: #cccccc } 
		.shp1 { fill: #e474c3 } 
		.shp2 { fill: #50c5b7 } 
		.shp3 { fill: #f48e25 } 
		.shp4 { fill: #ebcd36 } 
		.shp5 { fill: #abd140 } 
	</style>
	<g id="Background">
		<path id="Path 0" class="shp0" d="M17.15 30.75C14.33 38.31 12.02 44.95 12 45.5C11.98 46.05 14.11 46.84 16.73 47.26C19.36 47.67 56.6 48.02 99.5 48.02C163.66 48.02 177.85 47.77 179.5 46.65C180.6 45.9 184.26 40.39 187.63 34.4C191 28.4 194.04 22.04 194.38 20.25L195 17L22.26 17L17.15 30.75Z" />
		<path id="Path 1" class="shp1" d="M89.12 70.5C86.3 78.47 84.26 85.34 84.58 85.75C84.9 86.16 100.32 86.65 118.83 86.83C137.35 87.01 153.96 86.9 155.75 86.58C158.66 86.06 159.6 84.91 164.7 75.75C167.84 70.11 170.87 64.08 171.45 62.35C172.03 60.63 172.83 58.83 173.23 58.35C173.63 57.88 173.74 57.16 173.48 56.75C173.21 56.34 155.28 56 133.62 56L94.24 56L89.12 70.5Z" />
		<path id="Path 2" class="shp0" d="M212.07 93.25C209.64 94.49 206.65 96.85 205.44 98.5C204.23 100.15 202.56 102.85 201.74 104.5C200.91 106.15 199.93 109.3 199.56 111.5L198.88 115.5C206.34 116.67 216.94 117.01 227.25 117.01C237.56 117 246.68 116.78 247.5 116.5C248.39 116.2 249 114.78 249 113C249 111.35 247.92 107.86 246.59 105.25C245.26 102.64 242.68 98.97 240.84 97.1C239 95.23 236.04 93.1 234.25 92.35C232.46 91.61 227.74 91 223.75 91C218.21 91 215.45 91.53 212.07 93.25ZM315.5 92.57C312.75 93.34 308.25 95.1 305.5 96.49C302.75 97.88 299.56 99.8 298.41 100.76C297.26 101.72 295.11 104.3 293.63 106.5C292.15 108.7 290.95 111.63 290.95 113C290.97 115.21 291.53 115.59 295.73 116.26C298.36 116.67 317.15 117.03 337.5 117.05C369.69 117.08 374.66 116.89 375.75 115.54C376.73 114.33 376.75 113.19 375.82 110.25C375.17 108.19 372.8 104.68 370.57 102.45C368.33 100.23 364.02 97.24 361 95.82C357.98 94.39 353.14 92.73 350.25 92.11C347.36 91.5 339.49 91.04 332.75 91.09C325.63 91.14 318.41 91.76 315.5 92.57ZM414 92.44C410.98 93.2 406.02 94.9 403 96.21C399.98 97.53 395.33 100.6 392.68 103.05C389.85 105.67 387.38 109.03 386.68 111.22C386.03 113.27 385.87 115.29 386.33 115.72C386.79 116.15 407.27 116.64 431.83 116.8C456.4 116.97 477.51 116.86 478.75 116.55C480.26 116.18 480.99 115.26 480.98 113.75C480.97 112.51 479.96 109.74 478.73 107.59C477.51 105.44 474.02 101.98 471 99.9C467.98 97.82 462.57 95.12 459 93.9C453.54 92.04 449.87 91.64 436 91.37C424.32 91.15 417.89 91.46 414 92.44Z" />
		<path id="Path 3" class="shp2" d="M79.52 96.25C79.28 96.94 76.92 103.43 74.29 110.67L69.5 123.85C78.8 124.82 94.05 124.97 109.4 124.8L137.29 124.5C147.72 105.9 151.03 99.26 151.37 97.75L152 95C88.05 95 79.85 95.28 79.52 96.25Z" />
		<path id="Path 4" class="shp0" d="M198.98 203.25L198.96 278.5C204.8 279.65 215.75 279.98 227.05 279.99C242.19 280 247.92 279.67 248.82 278.75C249.75 277.79 250.03 261.14 250.02 207.5C250.02 169 249.67 135.36 249.26 132.73L248.5 127.97L199 128L198.98 203.25ZM288.98 203.25L288.95 278.5C294.03 279.68 305.06 280.02 316.75 280.01C334.74 280 338.08 279.77 338.5 278.5C338.77 277.68 339 245.61 339.01 207.25C339.01 168.89 338.67 135.36 338.26 132.73L337.5 127.97L289 128L288.98 203.25ZM359.98 203.25L359.96 278.5C365.8 279.65 376.84 279.98 388.25 279.99C408.01 280 409.05 279.9 410 278C410.64 276.72 411 251.1 410.99 207.25C410.99 169.44 410.65 136.13 410.24 133.24L409.5 127.97L360 128L359.98 203.25ZM431.98 203.25L431.95 278.5C437.03 279.68 448.06 280.02 459.75 280.01C477.74 280 481.08 279.77 481.5 278.5C481.77 277.68 482 245.61 482.01 207.25C482.01 168.89 481.67 135.36 481.26 132.73L480.5 127.97L432 128L431.98 203.25Z" />
		<path id="Path 5" class="shp3" d="M65.09 135.25C64.62 136.49 62.15 143.01 59.61 149.75C57.08 156.49 55.26 162.34 55.58 162.75C55.9 163.16 68.61 163.64 83.83 163.82C99.05 163.99 112.4 163.92 113.5 163.65C114.79 163.34 117.88 158.99 122.22 151.33C125.92 144.83 128.96 138.71 128.97 137.75C128.99 136.79 129.45 135.78 130 135.5C130.55 135.22 130.78 134.55 130.5 134C130.18 133.36 118.33 133 97.98 133L65.96 133L65.09 135.25Z" />
		<path id="Path 6" class="shp4" d="M46.15 185.75C43.33 193.31 41.02 199.95 41 200.5C40.98 201.05 43.11 201.84 45.73 202.26C48.36 202.67 59.84 203.01 71.25 203.01C89.67 203 92.2 202.8 93.76 201.25C94.73 200.29 98.27 194.55 101.63 188.5C104.98 182.45 108.01 176.26 108.36 174.75L109 172L51.26 172L46.15 185.75Z" />
		<path id="Path 7" class="shp5" d="M31.3 225.27C27.82 234.77 26.43 239.83 27.1 240.5C27.68 241.07 36.49 241.65 47.8 241.84C60.5 242.06 68.48 241.8 70.25 241.09C72.33 240.27 74.56 237.13 79.38 228.25C82.89 221.79 86.04 215.26 86.38 213.75L87 211L36.5 211.04L31.3 225.27Z" />
		<path id="Path 8" class="shp0" d="M21.52 251.25C21.28 251.94 18.92 258.41 16.29 265.63L11.5 278.76C18.48 279.73 51.66 280.01 89.75 280.01C144.12 280 159.14 279.73 159.67 278.75C160.04 278.06 161.42 273.45 162.75 268.5C164.07 263.55 165.45 257.37 165.82 254.77L166.5 250.03C37.29 250 21.86 250.27 21.52 251.25Z" />
	</g>
</svg>